<svg xmlns="http://www.w3.org/2000/svg" xmlns:xlink="http://www.w3.org/1999/xlink" width="256" zoomAndPan="magnify" viewBox="0 0 192 191.999996" height="256" preserveAspectRatio="xMidYMid meet" version="1.0"><defs><g/></defs><g fill="#008d97" fill-opacity="1"><g transform="translate(32.165148, 90.274586)"><g><path d="M 31.96875 -31.40625 L 31.96875 0 L 0.578125 0 L 0.578125 -16.9375 L 15.03125 -16.9375 L 15.03125 -18.03125 L 0.578125 -18.03125 L 0.578125 -35.03125 Z M 31.96875 -31.40625 "/></g></g></g><g fill="#008d97" fill-opacity="1"><g transform="translate(70.332199, 90.274586)"><g><path d="M 1.203125 -35.03125 L 61.46875 -31.40625 L 61.46875 0 L -6.375 0 L -6.25 -16.9375 L 44.53125 -16.9375 L 44.53125 -18.03125 L 1.203125 -18.03125 Z M 31.34375 2.359375 L 39.5 10.453125 L 31.34375 18.59375 L 23.25 10.453125 Z M 31.34375 2.359375 "/></g></g></g><g fill="#008d97" fill-opacity="1"><g transform="translate(156.017695, 68.934899)"><g><path d="M 8.28125 -19.9375 L -8.28125 -19.9375 L -8.28125 -24.328125 L 8.28125 -24.328125 Z M 8.28125 -19.9375 "/></g></g></g><g fill="#008d97" fill-opacity="1"><g transform="translate(137.990432, 90.274586)"><g><path d="M 36.109375 0 L 14.390625 0 L 10.0625 -1.84375 L 10.0625 0 L -6.375 0 L -6.375 -16.9375 L 1.078125 -16.9375 L 1.078125 -31.78125 L 36.109375 -34.96875 Z M 18.03125 -19.8125 L 18.03125 -16.9375 L 19.109375 -16.9375 L 19.109375 -19.8125 Z M 18.03125 -19.8125 "/></g></g></g><g fill="#00a899" fill-opacity="1"><g transform="translate(10.860561, 139.179523)"><g><path d="M 1.234375 -0.125 L 1.234375 -47.75 L 48.953125 -47.75 L 48.953125 -0.125 L 34.6875 -0.125 L 34.6875 -33.453125 L 32.21875 -33.453125 L 32.21875 -0.125 L 17.953125 -0.125 L 17.953125 -33.453125 L 15.5 -33.453125 L 15.5 -0.125 Z M 1.234375 -0.125 "/></g></g></g><g fill="#00a899" fill-opacity="1"><g transform="translate(61.039583, 139.179523)"><g><path d="M 32.21875 -0.125 L 17.953125 -0.125 L 17.953125 -16.734375 L 15.53125 -16.734375 L 15.53125 -0.125 L 1.234375 -0.125 L 1.234375 -47.75 L 32.21875 -47.75 Z M 17.953125 -33.453125 L 15.53125 -33.453125 L 15.53125 -31.03125 L 17.953125 -31.03125 Z M 17.953125 -33.453125 "/></g></g></g><g fill="#00a899" fill-opacity="1"><g transform="translate(94.492265, 139.179523)"><g><path d="M 1.234375 -0.125 L 1.234375 -14.421875 L 15.53125 -14.421875 L 15.53125 -47.75 L 29.828125 -47.75 L 29.828125 -0.125 Z M 1.234375 -0.125 "/></g></g></g><g fill="#00a899" fill-opacity="1"><g transform="translate(125.550969, 139.179523)"><g><path d="M 17.984375 -47.75 L 32.265625 -33.453125 L 32.265625 -0.125 L 1.234375 -0.125 L 1.234375 -47.75 Z M 17.984375 -14.421875 L 17.984375 -33.453125 L 15.53125 -33.453125 L 15.53125 -14.421875 Z M 17.984375 -14.421875 "/></g></g></g></svg>